<svg xmlns="http://www.w3.org/2000/svg" width="482" height="512" viewBox="0 0 482 512" version="1.1"><path d="M 146 92.500 L 146 103 125 103 L 104 103 104 123.500 L 104 144 93.500 144 L 83 144 83 236 L 83 328 114.500 328 L 146 328 146 236 L 146 144 177 144 L 208 144 208 154 L 208 164 218.500 164 L 229 164 229 215.500 L 229 267 250 267 L 271 267 271 226 L 271 185 281.500 185 L 292 185 292 164.500 L 292 144 323 144 L 354 144 354 236 L 354 328 385.500 328 L 417 328 417 236 L 417 144 406.500 144 L 396 144 396 123.500 L 396 103 385.500 103 L 375 103 375 92.500 L 375 82 333.500 82 L 292 82 292 92.500 L 292 103 281.500 103 L 271 103 271 113 L 271 123 250 123 L 229 123 229 113 L 229 103 218.500 103 L 208 103 208 92.500 L 208 82 177 82 L 146 82 146 92.500" stroke="none" fill="#fbfbfc" fill-rule="evenodd"/><path d="M 104 10.500 L 104 21 83 21 L 62 21 62 31 L 62 41 52 41 L 42 41 42 51.500 L 42 62 31.500 62 L 21 62 21 82.500 L 21 103 10.500 103 L 0 103 0 226 L 0 349 10.500 349 L 21 349 21 390 L 21 431 31.500 431 L 42 431 42 441 L 42 451 52 451 L 62 451 62 461.500 L 62 472 72.500 472 L 83 472 83 482 L 83 492 93.500 492 L 104 492 104 502 L 104 512 218.500 512 L 333 512 333 502 L 333 492 343.500 492 L 354 492 354 471.500 L 354 451 333 451 L 312 451 312 461.500 L 312 472 260 472 L 208 472 208 461.500 L 208 451 187.500 451 L 167 451 167 430.500 L 167 410 271 410 L 375 410 375 400 L 375 390 406 390 L 437 390 437 379.500 L 437 369 447.500 369 L 458 369 458 359 L 458 349 468.500 349 L 479 349 479 338.500 C 479 329.945, 479.271 328, 480.465 328 C 481.635 328, 481.995 330.062, 482.254 338.250 C 482.432 343.887, 482.673 295.359, 482.789 230.409 C 483.012 105.426, 482.626 82, 480.344 82 C 479.262 82, 479 77.997, 479 61.500 L 479 41 458 41 L 437 41 437 31 L 437 21 416.500 21 L 396 21 396 10.500 L 396 0 250 0 L 104 0 104 10.500 M 146 92.500 L 146 103 125 103 L 104 103 104 123.500 L 104 144 93.500 144 L 83 144 83 236 L 83 328 114.500 328 L 146 328 146 236 L 146 144 177 144 L 208 144 208 154 L 208 164 218.500 164 L 229 164 229 215.500 L 229 267 250 267 L 271 267 271 226 L 271 185 281.500 185 L 292 185 292 164.500 L 292 144 323 144 L 354 144 354 236 L 354 328 385.500 328 L 417 328 417 236 L 417 144 406.500 144 L 396 144 396 123.500 L 396 103 385.500 103 L 375 103 375 92.500 L 375 82 333.500 82 L 292 82 292 92.500 L 292 103 281.500 103 L 271 103 271 113 L 271 123 250 123 L 229 123 229 113 L 229 103 218.500 103 L 208 103 208 92.500 L 208 82 177 82 L 146 82 146 92.500 M 0.484 226 C 0.484 293.925, 0.604 321.713, 0.750 287.750 C 0.896 253.788, 0.896 198.213, 0.750 164.250 C 0.604 130.288, 0.484 158.075, 0.484 226 M 146 400 L 146 410 156.500 410 L 167 410 167 400 L 167 390 156.500 390 L 146 390 146 400" stroke="none" fill="#5d50e8" fill-rule="evenodd"/></svg>