<svg xmlns="http://www.w3.org/2000/svg" width="240" height="240" viewBox="0 0 240 240" version="1.1"><path d="M 156 18 L 156 20 158 20 L 160 20 160 18 L 160 16 158 16 L 156 16 156 18 M 124 34 L 124 36 126 36 L 128 36 128 34 L 128 32 126 32 L 124 32 124 34 M 68 46 L 68 48 70 48 L 72 48 72 46 L 72 44 70 44 L 68 44 68 46 M 160 70 L 160 72 162 72 L 164 72 164 70 L 164 68 162 68 L 160 68 160 70 M 60 82 L 60 84 62 84 L 64 84 64 82 L 64 80 62 80 L 60 80 60 82 M 36 106 L 36 108 38 108 L 40 108 40 106 L 40 104 38 104 L 36 104 36 106 M 176 158 L 176 160 178 160 L 180 160 180 158 L 180 156 178 156 L 176 156 176 158 M 44 170 L 44 172 46 172 L 48 172 48 170 L 48 168 46 168 L 44 168 44 170 M 128 178 L 128 180 130 180 L 132 180 132 178 L 132 176 130 176 L 128 176 128 178 M 200 178 L 200 180 202 180 L 204 180 204 178 L 204 176 202 176 L 200 176 200 178 M 168 194 L 168 196 170 196 L 172 196 172 194 L 172 192 170 192 L 168 192 168 194 M 60 202 L 60 204 62 204 L 64 204 64 202 L 64 200 62 200 L 60 200 60 202" stroke="none" fill="#04c48c" fill-rule="evenodd"/><path d="M 92 2 L 92 4 90 4 L 88 4 88 8 L 88 12 86 12 L 84 12 84 14 L 84 16 86 16 L 88 16 88 20 L 88 24 90 24 L 92 24 92 26 L 92 28 100 28 L 108 28 108 30 L 108 32 118 32 L 128 32 128 34 L 128 36 130 36 L 132 36 132 38 L 132 40 136 40 L 140 40 140 42 L 140 44 142 44 L 144 44 144 46 L 144 48 146 48 L 148 48 148 50 L 148 52 150 52 L 152 52 152 54 L 152 56 154 56 L 156 56 156 60 L 156 64 158 64 L 160 64 160 66 L 160 68 162 68 L 164 68 164 76 L 164 84 166 84 L 168 84 168 94 L 168 104 170 104 L 172 104 172 106 L 172 108 174 108 L 176 108 176 110 L 176 112 182 112 L 188 112 188 110 L 188 108 190 108 L 192 108 192 106 L 192 104 194 104 L 196 104 196 86 L 196 68 194 68 L 192 68 192 64 L 192 60 190 60 L 188 60 188 56 L 188 52 186 52 L 184 52 184 48 L 184 44 182 44 L 180 44 180 40 L 180 36 178 36 L 176 36 176 34 L 176 32 174 32 L 172 32 172 30 L 172 28 170 28 L 168 28 168 26 L 168 24 166 24 L 164 24 164 22 L 164 20 160 20 L 156 20 156 18 L 156 16 154 16 L 152 16 152 14 L 152 12 148 12 L 144 12 144 10 L 144 8 140 8 L 136 8 136 6 L 136 4 130 4 L 124 4 124 2 L 124 0 108 0 L 92 0 92 2 M 72 46 L 72 48 66 48 L 60 48 60 50 L 60 52 56 52 L 52 52 52 54 L 52 56 48 56 L 44 56 44 58 L 44 60 40 60 L 36 60 36 62 L 36 64 34 64 L 32 64 32 66 L 32 68 30 68 L 28 68 28 70 L 28 72 26 72 L 24 72 24 74 L 24 76 22 76 L 20 76 20 78 L 20 80 18 80 L 16 80 16 84 L 16 88 14 88 L 12 88 12 92 L 12 96 10 96 L 8 96 8 100 L 8 104 6 104 L 4 104 4 110 L 4 116 2 116 L 0 116 0 132 L 0 148 2 148 L 4 148 4 150 L 4 152 8 152 L 12 152 12 154 L 12 156 14 156 L 16 156 16 154 L 16 152 20 152 L 24 152 24 150 L 24 148 26 148 L 28 148 28 140 L 28 132 30 132 L 32 132 32 124 L 32 116 34 116 L 36 116 36 110 L 36 104 38 104 L 40 104 40 102 L 40 100 42 100 L 44 100 44 98 L 44 96 46 96 L 48 96 48 94 L 48 92 50 92 L 52 92 52 90 L 52 88 54 88 L 56 88 56 86 L 56 84 58 84 L 60 84 60 82 L 60 80 66 80 L 72 80 72 78 L 72 76 78 76 L 84 76 84 74 L 84 72 94 72 L 104 72 104 70 L 104 68 106 68 L 108 68 108 66 L 108 64 110 64 L 112 64 112 58 L 112 52 110 52 L 108 52 108 50 L 108 48 106 48 L 104 48 104 46 L 104 44 88 44 L 72 44 72 46 M 224 86 L 224 88 220 88 L 216 88 216 90 L 216 92 214 92 L 212 92 212 100 L 212 108 210 108 L 208 108 208 116 L 208 124 206 124 L 204 124 204 128 L 204 132 202 132 L 200 132 200 136 L 200 140 198 140 L 196 140 196 142 L 196 144 194 144 L 192 144 192 146 L 192 148 190 148 L 188 148 188 150 L 188 152 186 152 L 184 152 184 154 L 184 156 182 156 L 180 156 180 158 L 180 160 174 160 L 168 160 168 162 L 168 164 162 164 L 156 164 156 166 L 156 168 146 168 L 136 168 136 170 L 136 172 134 172 L 132 172 132 176 L 132 180 130 180 L 128 180 128 184 L 128 188 130 188 L 132 188 132 190 L 132 192 134 192 L 136 192 136 194 L 136 196 152 196 L 168 196 168 194 L 168 192 174 192 L 180 192 180 190 L 180 188 184 188 L 188 188 188 186 L 188 184 192 184 L 196 184 196 182 L 196 180 198 180 L 200 180 200 178 L 200 176 204 176 L 208 176 208 174 L 208 172 210 172 L 212 172 212 170 L 212 168 214 168 L 216 168 216 166 L 216 164 218 164 L 220 164 220 162 L 220 160 222 160 L 224 160 224 156 L 224 152 226 152 L 228 152 228 148 L 228 144 230 144 L 232 144 232 140 L 232 136 234 136 L 236 136 236 130 L 236 124 238 124 L 240 124 240 108 L 240 92 238 92 L 236 92 236 90 L 236 88 232 88 L 228 88 228 86 L 228 84 226 84 L 224 84 224 86 M 52 130 L 52 132 50 132 L 48 132 48 134 L 48 136 46 136 L 44 136 44 152 L 44 168 46 168 L 48 168 48 174 L 48 180 50 180 L 52 180 52 184 L 52 188 54 188 L 56 188 56 192 L 56 196 58 196 L 60 196 60 198 L 60 200 62 200 L 64 200 64 204 L 64 208 66 208 L 68 208 68 210 L 68 212 70 212 L 72 212 72 214 L 72 216 74 216 L 76 216 76 218 L 76 220 78 220 L 80 220 80 222 L 80 224 84 224 L 88 224 88 226 L 88 228 92 228 L 96 228 96 230 L 96 232 100 232 L 104 232 104 234 L 104 236 110 236 L 116 236 116 238 L 116 240 132 240 L 148 240 148 238 L 148 236 150 236 L 152 236 152 232 L 152 228 154 228 L 156 228 156 226 L 156 224 154 224 L 152 224 152 220 L 152 216 150 216 L 148 216 148 214 L 148 212 140 212 L 132 212 132 210 L 132 208 124 208 L 116 208 116 206 L 116 204 112 204 L 108 204 108 202 L 108 200 104 200 L 100 200 100 198 L 100 196 98 196 L 96 196 96 194 L 96 192 94 192 L 92 192 92 190 L 92 188 90 188 L 88 188 88 186 L 88 184 86 184 L 84 184 84 180 L 84 176 82 176 L 80 176 80 172 L 80 168 78 168 L 76 168 76 162 L 76 156 74 156 L 72 156 72 146 L 72 136 70 136 L 68 136 68 134 L 68 132 66 132 L 64 132 64 130 L 64 128 58 128 L 52 128 52 130" stroke="none" fill="#04bc8c" fill-rule="evenodd"/></svg>